<?xml version="1.0" encoding="UTF-8" standalone="no"?>
<svg
   xmlns:dc="http://purl.org/dc/elements/1.1/"
   xmlns:cc="http://creativecommons.org/ns#"
   xmlns:rdf="http://www.w3.org/1999/02/22-rdf-syntax-ns#"
   xmlns:svg="http://www.w3.org/2000/svg"
   xmlns="http://www.w3.org/2000/svg"
   xmlns:sodipodi="http://sodipodi.sourceforge.net/DTD/sodipodi-0.dtd"
   xmlns:inkscape="http://www.inkscape.org/namespaces/inkscape"
   id="Layer_1"
   version="1.1"
   viewBox="0 0 48 48"
   xml:space="preserve"
   sodipodi:docname="icon-rm.svg"
   width="48"
   height="48"
   inkscape:version="1.0.2 (e86c870, 2021-01-15)"><metadata
     id="metadata1598"><rdf:RDF><cc:Work
         rdf:about=""><dc:format>image/svg+xml</dc:format><dc:type
           rdf:resource="http://purl.org/dc/dcmitype/StillImage" /><dc:title></dc:title></cc:Work></rdf:RDF></metadata><defs
     id="defs1596" /><sodipodi:namedview
     pagecolor="#ffffff"
     bordercolor="#666666"
     borderopacity="1"
     objecttolerance="10"
     gridtolerance="10"
     guidetolerance="10"
     inkscape:pageopacity="0"
     inkscape:pageshadow="2"
     inkscape:window-width="1920"
     inkscape:window-height="1020"
     id="namedview1594"
     showgrid="false"
     inkscape:zoom="6.484375"
     inkscape:cx="20.075069"
     inkscape:cy="-1.5421133"
     inkscape:window-x="-8"
     inkscape:window-y="-8"
     inkscape:window-maximized="1"
     inkscape:current-layer="Layer_1" /><style
     type="text/css"
     id="style1575">
	.st0{fill:#1B3954;}
	.st1{fill:#16ADE1;}
</style><g
     id="g1591"
     transform="matrix(0.10146203,0,0,0.10146203,-1.9702886,-1.9742797)"><g
       id="g1589"><g
         id="g1579"><path
           class="st1"
           d="m 418,336.1 h -19.1 c 1.5,-0.9 2.9,-1.9 4.2,-3 11.4,-9.1 18.7,-23.1 18.7,-38.9 0,-12.2 -4.4,-23.4 -11.7,-32.1 -9.1,-10.8 -22.7,-17.7 -38,-17.7 -27.5,0 -49.7,22.3 -49.7,49.7 0,17.6 9.1,33 22.9,41.9 h -19.1 c -22.7,0 -41,18.4 -41,41 v 82.3 h 33.1 V 408 c 0,-3.9 3.1,-7 7,-7 3.9,0 7,3.1 7,7 v 51.4 H 412 V 408 c 0,-3.9 3.1,-7 7,-7 3.9,0 7,3.1 7,7 v 51.4 h 33 v -82.3 c 0,-22.7 -18.3,-41 -41,-41 z"
           id="path1577" /></g><path
         class="st0"
         d="m 315.1,322.9 c -4.5,-8.8 -6.9,-18.7 -6.9,-29 0,-35.1 28.6,-63.7 63.7,-63.7 14.6,0 28.6,5 39.7,13.9 l 8.8,-89.4 c 0.7,-6.9 -4.8,-12.9 -11.7,-12.9 H 348 c -5.6,0 -10.4,3.9 -11.5,9.4 l -7.1,35.1 c -1.1,5.5 -5.9,9.4 -11.5,9.4 H 64.7 c -7.1,0 -12.5,6.2 -11.7,13.2 l 24.3,198.6 c 0.7,5.9 5.7,10.3 11.6,10.3 h 181.9 v -41 c 0.1,-26.6 19.1,-48.8 44.3,-53.9 z m -66.7,8.2 h -32 v 32 H 166 v -32 h -32 v -50.3 h 32 v -32 h 50.4 v 32 h 32 z"
         id="path1581" /><g
         id="g1587"><g
           id="g1585"><path
             class="st1"
             d="m 322.7,148.5 c 2.4,-12 13,-20.7 25.2,-20.7 h 34.3 V 52.6 H 91.7 v 76.6 h 69 c 3.9,0 7,3.1 7,7 0,3.9 -3.1,7 -7,7 h -69 v 38.6 H 316 Z M 203.1,137.6 c -0.1,0.4 -0.2,0.9 -0.4,1.3 -0.2,0.4 -0.4,0.8 -0.6,1.2 -0.3,0.4 -0.5,0.7 -0.9,1.1 -0.3,0.3 -0.7,0.6 -1.1,0.9 -0.4,0.3 -0.8,0.5 -1.2,0.6 -0.4,0.2 -0.9,0.3 -1.3,0.4 -0.4,0.1 -0.9,0.1 -1.4,0.1 -1.8,0 -3.6,-0.8 -4.9,-2.1 -1.3,-1.3 -2.1,-3.1 -2.1,-4.9 0,-1.8 0.8,-3.6 2.1,-5 0.3,-0.3 0.7,-0.6 1.1,-0.9 0.4,-0.3 0.8,-0.5 1.2,-0.6 0.4,-0.2 0.9,-0.3 1.3,-0.4 0.9,-0.2 1.8,-0.2 2.7,0 0.4,0.1 0.9,0.2 1.3,0.4 0.4,0.2 0.8,0.4 1.2,0.6 0.4,0.3 0.8,0.5 1.1,0.9 1.3,1.3 2,3.1 2,5 0,0.4 0,0.9 -0.1,1.4 z"
             id="path1583" /></g></g></g></g></svg>
