<?xml version="1.0" encoding="UTF-8" standalone="no"?>
<svg
   xmlns:dc="http://purl.org/dc/elements/1.1/"
   xmlns:cc="http://creativecommons.org/ns#"
   xmlns:rdf="http://www.w3.org/1999/02/22-rdf-syntax-ns#"
   xmlns:svg="http://www.w3.org/2000/svg"
   xmlns="http://www.w3.org/2000/svg"
   xmlns:sodipodi="http://sodipodi.sourceforge.net/DTD/sodipodi-0.dtd"
   xmlns:inkscape="http://www.inkscape.org/namespaces/inkscape"
   width="210mm"
   height="297mm"
   viewBox="0 0 210 297"
   version="1.1"
   id="svg1032"
   inkscape:version="1.0.2 (e86c870, 2021-01-15)"
   sodipodi:docname="icon-home.svg">
  <defs
     id="defs1026" />
  <sodipodi:namedview
     id="base"
     pagecolor="#ffffff"
     bordercolor="#666666"
     borderopacity="1.0"
     inkscape:pageopacity="0.0"
     inkscape:pageshadow="2"
     inkscape:zoom="6.8883986"
     inkscape:cx="-9.6020471"
     inkscape:cy="304.51"
     inkscape:document-units="mm"
     inkscape:current-layer="Stay_At_Home-Protect-Coronavirus-Covid_19-Saty-Home"
     inkscape:document-rotation="0"
     showgrid="false"
     inkscape:window-width="1920"
     inkscape:window-height="1020"
     inkscape:window-x="-8"
     inkscape:window-y="-8"
     inkscape:window-maximized="1" />
  <metadata
     id="metadata1029">
    <rdf:RDF>
      <cc:Work
         rdf:about="">
        <dc:format>image/svg+xml</dc:format>
        <dc:type
           rdf:resource="http://purl.org/dc/dcmitype/StillImage" />
        <dc:title></dc:title>
      </cc:Work>
    </rdf:RDF>
  </metadata>
  <g
     inkscape:label="Layer 1"
     inkscape:groupmode="layer"
     id="layer1">
    <g
       data-name="Stay At Home-Protect-Coronavirus-Covid 19-Saty-Home"
       id="Stay_At_Home-Protect-Coronavirus-Covid_19-Saty-Home"
       transform="matrix(0.26458333,0,0,0.26458333,-0.15119037,74.820387)">
      <polygon
         points="12,34.96 32,18 52,34.86 52,61 12,61 "
         style="fill:#1b3954;fill-opacity:1"
         id="polygon1034"
         transform="matrix(0.9368197,0,0,0.9368197,2.0217697,3.8539984)" />
      <circle
         cx="32"
         cy="34"
         r="4"
         style="fill:#ffffff;fill-opacity:1"
         id="circle1036" />
      <path
         d="m 59.500332,36.116148 a 1.9399222,1.9399222 0 1 1 -2.4928,2.968081 L 51.410856,34.370218 32.011634,18.016673 12.612411,34.467214 7.015735,39.210324 A 1.9496219,1.9496219 0 0 1 4.0864524,38.705944 2.0369184,2.0369184 0 0 1 4.6005318,36.164646 L 30.770083,14.214425 a 1.9224629,1.9224629 0 0 1 2.483101,-0.0097 z"
         style="fill:#589fff;stroke-width:0.969961;fill-opacity:1"
         id="path1040" />
      <rect
         height="8"
         style="fill:#ffffff;fill-opacity:1"
         width="14"
         x="32"
         y="45"
         id="rect1042" />
      <rect
         height="16"
         style="fill:#ffffff;fill-opacity:1"
         width="10"
         x="18"
         y="45"
         id="rect1044" />
      <path
         d="m 33.787779,32.23671 a 2.4850763,2.4850763 0 1 1 -1.769676,-0.740503 2.4536991,2.4536991 0 0 1 1.769676,0.740503 z"
         style="fill:#589fff;stroke-width:1.25509;fill-opacity:1"
         id="path1048" />
      <rect
         height="13.095812"
         style="fill:#589fff;fill-opacity:1;stroke-width:0.768842"
         width="7.2220802"
         x="19.38896"
         y="46.452095"
         id="rect1044-0" />
      <rect
         height="5.3797045"
         style="fill:#589fff;fill-opacity:1;stroke-width:0.732039"
         width="11.156491"
         x="33.421753"
         y="46.310146"
         id="rect1042-9" />
    </g>
  </g>
</svg>
