<?xml version="1.0" encoding="UTF-8" standalone="no"?>
<svg
   xmlns:dc="http://purl.org/dc/elements/1.1/"
   xmlns:cc="http://creativecommons.org/ns#"
   xmlns:rdf="http://www.w3.org/1999/02/22-rdf-syntax-ns#"
   xmlns:svg="http://www.w3.org/2000/svg"
   xmlns="http://www.w3.org/2000/svg"
   xmlns:sodipodi="http://sodipodi.sourceforge.net/DTD/sodipodi-0.dtd"
   xmlns:inkscape="http://www.inkscape.org/namespaces/inkscape"
   id="Layer_1"
   version="1.1"
   viewBox="0 0 48 48"
   xml:space="preserve"
   sodipodi:docname="icon-obat.svg"
   width="48"
   height="48"
   inkscape:version="1.0.2 (e86c870, 2021-01-15)"><metadata
     id="metadata1490"><rdf:RDF><cc:Work
         rdf:about=""><dc:format>image/svg+xml</dc:format><dc:type
           rdf:resource="http://purl.org/dc/dcmitype/StillImage" /><dc:title></dc:title></cc:Work></rdf:RDF></metadata><defs
     id="defs1488" /><sodipodi:namedview
     pagecolor="#ffffff"
     bordercolor="#666666"
     borderopacity="1"
     objecttolerance="10"
     gridtolerance="10"
     guidetolerance="10"
     inkscape:pageopacity="0"
     inkscape:pageshadow="2"
     inkscape:window-width="1920"
     inkscape:window-height="1020"
     id="namedview1486"
     showgrid="false"
     inkscape:zoom="12.96875"
     inkscape:cx="26.978255"
     inkscape:cy="25.920039"
     inkscape:window-x="-8"
     inkscape:window-y="-8"
     inkscape:window-maximized="1"
     inkscape:current-layer="Layer_1" /><style
     type="text/css"
     id="style1463">
	.st0{fill:#1B3954;}
	.st1{fill:#16ADE1;}
</style><g
     id="g1483"
     transform="matrix(0.10792963,0,0,0.10792963,-3.6299853,-3.6299853)"><g
       id="g1481"><g
         id="g1467"><path
           class="st1"
           d="m 106.6,104.5 h 139.6 c 2.7,0 4.9,-2.8 4.9,-6.2 v -29 c 0,-3.4 -2.2,-6.2 -4.9,-6.2 H 106.6 c -2.7,0 -4.9,2.8 -4.9,6.2 v 29 c 0,3.4 2.2,6.2 4.9,6.2 z"
           id="path1465" /></g><path
         class="st0"
         d="m 287.8,218.5 c 0,-4 -0.5,-8 -1.3,-11.8 -0.6,0.2 -1.3,0.3 -2,0.3 h -65.3 c -3.9,0 -7,-3.1 -7,-7 0,-3.9 3.1,-7 7,-7 h 62.2 c -4.9,-9 -12.4,-16.6 -21.8,-21.5 v 0 c -17.4,-9.2 -28.3,-27.3 -28.3,-47 v -5.9 H 121.5 v 5.9 c 0,19.7 -10.9,37.8 -28.3,47 -17.4,9.2 -28.3,27.3 -28.3,47.1 v 7.1 h 223 v -7.2 z m -90.3,-17.1 c -0.1,0.5 -0.2,0.9 -0.4,1.3 -0.2,0.4 -0.4,0.8 -0.7,1.2 -0.3,0.4 -0.5,0.7 -0.9,1.1 -1.3,1.3 -3.1,2 -4.9,2 -1.8,0 -3.6,-0.7 -4.9,-2 -0.3,-0.3 -0.6,-0.7 -0.9,-1.1 -0.3,-0.4 -0.5,-0.8 -0.7,-1.2 -0.2,-0.4 -0.3,-0.9 -0.4,-1.3 -0.1,-0.4 -0.1,-0.9 -0.1,-1.4 0,-0.5 0.1,-0.9 0.1,-1.4 0.1,-0.5 0.2,-0.9 0.4,-1.3 0.2,-0.4 0.4,-0.8 0.7,-1.2 0.3,-0.4 0.5,-0.7 0.9,-1.1 0.3,-0.3 0.7,-0.6 1.1,-0.9 0.4,-0.3 0.8,-0.5 1.2,-0.6 0.4,-0.2 0.9,-0.3 1.3,-0.4 0.9,-0.2 1.8,-0.2 2.7,0 0.4,0.1 0.9,0.2 1.3,0.4 0.4,0.2 0.8,0.4 1.2,0.6 0.4,0.3 0.7,0.6 1.1,0.9 0.3,0.3 0.6,0.7 0.9,1.1 0.3,0.4 0.5,0.8 0.7,1.2 0.2,0.4 0.3,0.9 0.4,1.3 0.1,0.5 0.1,0.9 0.1,1.4 0,0.5 -0.1,1 -0.2,1.4 z"
         id="path1469" /><path
         class="st0"
         d="m 64.8,407.6 c 0,5.5 1.1,10.8 3.1,15.8 2,5 5.1,9.5 8.9,13.4 7.7,7.7 18.2,12.1 29.1,12.1 h 140.6 c 5.5,0 10.8,-1.1 15.8,-3.1 4.9,-2 9.5,-5.1 13.4,-8.9 7.7,-7.7 12.1,-18.2 12.1,-29.1 v -14.3 h -223 z"
         id="path1471" /><g
         id="g1477"><g
           id="g1475"><path
             class="st1"
             d="m 64.8,379.3 h 223 V 239.7 h -223 z m 63.9,-90.8 h 26.6 v -26.6 h 42 v 26.6 H 224 v 42 h -26.6 v 26.6 h -42 v -26.6 h -26.6 v -42 z"
             id="path1473" /></g></g><path
         class="st0"
         d="m 387.4,316.5 c -33,0 -59.8,26.8 -59.8,59.8 0,33 26.8,59.8 59.8,59.8 14,0 26.8,-4.8 37,-12.9 0,0 -0.1,0 -0.1,-0.1 L 374,372.8 c -2.7,-2.7 -2.7,-7.2 0,-9.9 2.7,-2.7 7.2,-2.7 9.9,0 l 50.3,50.3 c 0,0 0,0.1 0.1,0.1 8,-10.2 12.9,-23 12.9,-37 0,-33.1 -26.8,-59.8 -59.8,-59.8 z m -17,42.7 c -1.3,1.3 -3.1,2 -4.9,2 -0.5,0 -0.9,0 -1.4,-0.1 -0.5,-0.1 -0.9,-0.2 -1.3,-0.4 -0.4,-0.2 -0.8,-0.4 -1.2,-0.6 -0.4,-0.3 -0.7,-0.5 -1.1,-0.9 -1.3,-1.3 -2,-3.1 -2,-4.9 0,-0.5 0,-0.9 0.1,-1.4 0.1,-0.5 0.2,-0.9 0.4,-1.3 0.2,-0.4 0.4,-0.8 0.6,-1.2 0.3,-0.4 0.5,-0.7 0.9,-1.1 0.3,-0.3 0.7,-0.6 1.1,-0.9 0.4,-0.3 0.8,-0.5 1.2,-0.6 0.4,-0.2 0.9,-0.3 1.3,-0.4 0.9,-0.2 1.8,-0.2 2.7,0 0.5,0.1 0.9,0.2 1.3,0.4 0.4,0.2 0.8,0.4 1.2,0.6 0.4,0.3 0.7,0.5 1.1,0.9 0.3,0.3 0.6,0.7 0.9,1.1 0.3,0.4 0.5,0.8 0.6,1.2 0.2,0.4 0.3,0.9 0.4,1.3 0.1,0.4 0.1,0.9 0.1,1.4 0,1.8 -0.7,3.6 -2,4.9 z"
         id="path1479" /></g></g></svg>
