<?xml version="1.0" encoding="UTF-8" standalone="no"?>
<svg
   xmlns:dc="http://purl.org/dc/elements/1.1/"
   xmlns:cc="http://creativecommons.org/ns#"
   xmlns:rdf="http://www.w3.org/1999/02/22-rdf-syntax-ns#"
   xmlns:svg="http://www.w3.org/2000/svg"
   xmlns="http://www.w3.org/2000/svg"
   xmlns:sodipodi="http://sodipodi.sourceforge.net/DTD/sodipodi-0.dtd"
   xmlns:inkscape="http://www.inkscape.org/namespaces/inkscape"
   width="48"
   height="48"
   viewBox="0 0 48 48"
   fill="none"
   version="1.1"
   id="svg1412"
   sodipodi:docname="icon-user.svg"
   inkscape:version="1.0.2 (e86c870, 2021-01-15)">
  <metadata
     id="metadata1418">
    <rdf:RDF>
      <cc:Work
         rdf:about="">
        <dc:format>image/svg+xml</dc:format>
        <dc:type
           rdf:resource="http://purl.org/dc/dcmitype/StillImage" />
        <dc:title></dc:title>
      </cc:Work>
    </rdf:RDF>
  </metadata>
  <defs
     id="defs1416" />
  <sodipodi:namedview
     pagecolor="#ffffff"
     bordercolor="#666666"
     borderopacity="1"
     objecttolerance="10"
     gridtolerance="10"
     guidetolerance="10"
     inkscape:pageopacity="0"
     inkscape:pageshadow="2"
     inkscape:window-width="1920"
     inkscape:window-height="1020"
     id="namedview1414"
     showgrid="false"
     inkscape:zoom="9.2222222"
     inkscape:cx="33.137877"
     inkscape:cy="29.178849"
     inkscape:window-x="-8"
     inkscape:window-y="-8"
     inkscape:window-maximized="1"
     inkscape:current-layer="svg1412" />
  <g
     id="g1424"
     transform="translate(0.1311382,-3.7097045)">
    <path
       fill-rule="evenodd"
       clip-rule="evenodd"
       d="m 32.50226,29.798745 c 2.532732,1.7193 4.307493,4.048673 4.307493,7.154505 v 5.546129 h 7.394838 V 36.95325 c 0,-4.030186 -6.599893,-6.415021 -11.702331,-7.154505 z"
       fill="#1b3954"
       id="path1404"
       style="stroke-width:0.49299" />
    <path
       d="m 18.322808,27.709704 c 4.084071,0 7.394837,-3.310768 7.394837,-7.394838 0,-4.084069 -3.310766,-7.394836 -7.394837,-7.394836 -4.084071,0 -7.394838,3.310767 -7.394838,7.394836 0,4.08407 3.310767,7.394838 7.394838,7.394838 z"
       fill="#16ade1"
       id="path1406"
       style="stroke-width:0.49299" />
    <path
       fill-rule="evenodd"
       clip-rule="evenodd"
       d="m 29.414915,27.709704 c 4.085649,0 7.394838,-3.30919 7.394838,-7.394838 0,-4.085647 -3.309189,-7.394836 -7.394838,-7.394836 -0.868893,0 -1.682325,0.18487 -2.458783,0.44369 1.534429,1.90417 2.458783,4.325979 2.458783,6.951146 0,2.625168 -0.924354,5.046976 -2.458783,6.951148 0.776458,0.258818 1.58989,0.44369 2.458783,0.44369 z"
       fill="#1b3954"
       id="path1408"
       style="stroke-width:0.49299" />
    <path
       fill-rule="evenodd"
       clip-rule="evenodd"
       d="m 18.322808,29.558413 c -4.936054,0 -14.7896754,2.477272 -14.7896754,7.394837 v 5.546129 H 33.112483 V 36.95325 c 0,-4.917565 -9.853621,-7.394837 -14.789675,-7.394837 z"
       fill="#1b3954"
       id="path1410"
       style="stroke-width:0.49299" />
  </g>
</svg>
