<?xml version="1.0" encoding="UTF-8" standalone="no"?>
<svg
   xmlns:dc="http://purl.org/dc/elements/1.1/"
   xmlns:cc="http://creativecommons.org/ns#"
   xmlns:rdf="http://www.w3.org/1999/02/22-rdf-syntax-ns#"
   xmlns:svg="http://www.w3.org/2000/svg"
   xmlns="http://www.w3.org/2000/svg"
   xmlns:sodipodi="http://sodipodi.sourceforge.net/DTD/sodipodi-0.dtd"
   xmlns:inkscape="http://www.inkscape.org/namespaces/inkscape"
   id="Layer_1"
   version="1.1"
   viewBox="0 0 48 48"
   xml:space="preserve"
   sodipodi:docname="icon-laporan.svg"
   width="48"
   height="48"
   inkscape:version="1.0.2 (e86c870, 2021-01-15)"><metadata
     id="metadata1656"><rdf:RDF><cc:Work
         rdf:about=""><dc:format>image/svg+xml</dc:format><dc:type
           rdf:resource="http://purl.org/dc/dcmitype/StillImage" /><dc:title></dc:title></cc:Work></rdf:RDF></metadata><defs
     id="defs1654" /><sodipodi:namedview
     pagecolor="#ffffff"
     bordercolor="#666666"
     borderopacity="1"
     objecttolerance="10"
     gridtolerance="10"
     guidetolerance="10"
     inkscape:pageopacity="0"
     inkscape:pageshadow="2"
     inkscape:window-width="1920"
     inkscape:window-height="1020"
     id="namedview1652"
     showgrid="false"
     inkscape:zoom="4.4260125"
     inkscape:cx="71.425999"
     inkscape:cy="64.890442"
     inkscape:window-x="-8"
     inkscape:window-y="-8"
     inkscape:window-maximized="1"
     inkscape:current-layer="Layer_1" /><style
     type="text/css"
     id="style1633">
	.st0{fill:#1B3954;}
	.st1{fill:#16ADE1;}
</style><g
     id="g1649"
     transform="matrix(0.10657992,0,0,0.10657992,-3.2897885,-3.2844595)"><g
       id="g1647"><path
         class="st0"
         d="M 131.4,428.4 V 93.8 H 87.3 v 304.1 c 0,32 26,58 58,58 h 0.2 v -14 c 0.2,0 0.4,0 0.6,0 0,0 0,0 0,0 0.2,0 0.3,0 0.5,0 h 0.5 0.4 c 0.1,0 0.3,0 0.4,0 h 0.3 0.3 c 0.2,0 0.4,0 0.6,0 h 0.3 c 0.2,0 0.4,0 0.6,-0.1 h 0.2 0.2 c 0.4,0 0.9,-0.1 1.3,-0.2 0.4,-0.1 0.9,-0.1 1.4,-0.2 9.2,-1.7 17.5,-6.2 23.8,-12.8 h -45.5 z"
         id="path1635" /><rect
         class="st0"
         height="61.700001"
         width="24.799999"
         x="368.89999"
         y="93.800003"
         id="rect1637" /><g
         id="g1643"><g
           id="g1641"><path
             class="st1"
             d="m 187.4,410.4 c 1.2,-4 1.8,-8.3 1.8,-12.5 V 155.5 h 165.7 v -24 h -67.7 c -3.9,0 -7,-3.1 -7,-7 0,-3.9 3.1,-7 7,-7 h 67.7 V 56.1 H 145.4 V 414.4 H 186 c 0.6,-1.3 1,-2.6 1.4,-4 z M 247,119.5 c 0.3,-0.3 0.7,-0.6 1.1,-0.9 0.4,-0.3 0.8,-0.5 1.2,-0.6 0.4,-0.2 0.9,-0.3 1.3,-0.4 0.9,-0.2 1.8,-0.2 2.7,0 0.4,0.1 0.9,0.2 1.3,0.4 0.4,0.2 0.8,0.4 1.2,0.6 0.4,0.3 0.7,0.5 1.1,0.9 1.3,1.3 2,3.1 2,5 0,0.5 0,0.9 -0.1,1.4 -0.1,0.5 -0.2,0.9 -0.4,1.3 -0.2,0.4 -0.4,0.8 -0.6,1.2 -0.3,0.4 -0.6,0.7 -0.9,1.1 -0.3,0.3 -0.7,0.6 -1.1,0.9 -0.4,0.3 -0.8,0.5 -1.2,0.6 -0.4,0.2 -0.9,0.3 -1.3,0.4 -0.4,0.1 -0.9,0.1 -1.4,0.1 -0.5,0 -0.9,0 -1.4,-0.1 -0.4,-0.1 -0.9,-0.2 -1.3,-0.4 -0.4,-0.2 -0.8,-0.4 -1.2,-0.6 -0.4,-0.3 -0.7,-0.6 -1.1,-0.9 -0.3,-0.3 -0.6,-0.7 -0.9,-1.1 -0.3,-0.4 -0.5,-0.8 -0.7,-1.2 -0.2,-0.4 -0.3,-0.9 -0.4,-1.3 -0.1,-0.4 -0.1,-0.9 -0.1,-1.4 0.1,-1.9 0.9,-3.7 2.2,-5 z"
             id="path1639" /></g></g><path
         class="st0"
         d="m 203.3,169.5 v 228.4 c 0,5.7 -0.8,11.3 -2.4,16.5 -4.5,15.1 -14.9,27.6 -28.6,34.8 v 6.7 h 194.5 c 32,0 58,-26 58,-58 V 169.5 Z m 172,170.2 H 341 V 374 h -54 v -34.3 h -34.3 v -54 H 287 v -34.3 h 54 v 34.3 h 34.3 z"
         id="path1645" /></g></g></svg>
